<?xml version="1.0" encoding="UTF-8" standalone="no"?>
<!-- Created with Inkscape (http://www.inkscape.org/) -->

<svg
   xmlns:dc="http://purl.org/dc/elements/1.1/"
   xmlns:cc="http://creativecommons.org/ns#"
   xmlns:rdf="http://www.w3.org/1999/02/22-rdf-syntax-ns#"
   xmlns:svg="http://www.w3.org/2000/svg"
   xmlns="http://www.w3.org/2000/svg"
   xmlns:xlink="http://www.w3.org/1999/xlink"
   xmlns:sodipodi="http://sodipodi.sourceforge.net/DTD/sodipodi-0.dtd"
   xmlns:inkscape="http://www.inkscape.org/namespaces/inkscape"
   width="48"
   height="48"
   id="svg2"
   version="1.1"
   inkscape:version="0.91 r13725"
   inkscape:export-filename="/home/amir/logo_MD2.png"
   inkscape:export-xdpi="405"
   inkscape:export-ydpi="405"
   sodipodi:docname="logo_MD2.svg">
  <sodipodi:namedview
     id="base"
     pagecolor="#ffffff"
     bordercolor="#666666"
     borderopacity="1.0"
     inkscape:pageopacity="0.0"
     inkscape:pageshadow="2"
     inkscape:zoom="2.5966851"
     inkscape:cx="13.909923"
     inkscape:cy="-12.764258"
     inkscape:document-units="px"
     inkscape:current-layer="layer1"
     showgrid="false"
     inkscape:window-width="1973"
     inkscape:window-height="1289"
     inkscape:window-x="859"
     inkscape:window-y="490"
     inkscape:window-maximized="0" />
  <defs
     id="defs4">
    <linearGradient
       id="linearGradient871">
      <stop
         id="stop872"
         offset="0.00000000"
         style="stop-color:#ffffff;stop-opacity:0.00000000;" />
      <stop
         id="stop873"
         offset="0.25000000"
         style="stop-color:#ffffff;stop-opacity:0.00000000;" />
      <stop
         id="stop875"
         offset="1.0000000"
         style="stop-color:#ffffff;stop-opacity:1.0000000;" />
    </linearGradient>
    <linearGradient
       id="linearGradient863">
      <stop
         id="stop864"
         offset="0.00000000"
         style="stop-color:#3d3d3d;stop-opacity:0.00000000;" />
      <stop
         id="stop867"
         offset="0.25000000"
         style="stop-color:#626262;stop-opacity:1.0000000;" />
      <stop
         id="stop866"
         offset="0.67310077"
         style="stop-color:#575757;stop-opacity:1.0000000;" />
      <stop
         id="stop865"
         offset="1.0000000"
         style="stop-color:#222222;stop-opacity:1.0000000;" />
    </linearGradient>
    <linearGradient
       id="linearGradient849">
      <stop
         id="stop850"
         offset="0.00000000"
         style="stop-color:#000000;stop-opacity:0.00000000;" />
      <stop
         id="stop851"
         offset="1.0000000"
         style="stop-color:#000000;stop-opacity:0.68750000;" />
    </linearGradient>
    <linearGradient
       id="linearGradient843">
      <stop
         id="stop844"
         offset="0.00000000"
         style="stop-color:#ffffff;stop-opacity:0.00000000;" />
      <stop
         id="stop845"
         offset="1.0000000"
         style="stop-color:#ffffff;stop-opacity:0.62500000;" />
    </linearGradient>
    <linearGradient
       id="linearGradient838">
      <stop
         id="stop839"
         offset="0.00000000"
         style="stop-color:#000000;stop-opacity:1.0000000;" />
      <stop
         id="stop868"
         offset="0.29868218"
         style="stop-color:#656565;stop-opacity:1.0000000;" />
      <stop
         id="stop840"
         offset="1.0000000"
         style="stop-color:#000000;stop-opacity:1.0000000;" />
    </linearGradient>
    <linearGradient
       gradientUnits="userSpaceOnUse"
       gradientTransform="matrix(0.89275487,0.55644695,-0.33964659,0.54492372,69.028975,850.91762)"
       id="linearGradient841"
       x1="59.754772"
       x2="73.763008"
       xlink:href="#linearGradient838"
       y1="-42.001186"
       y2="285.71637" />
    <linearGradient
       gradientUnits="userSpaceOnUse"
       gradientTransform="matrix(1.2877399,0.80263798,-0.23546768,0.3777807,69.028975,850.91762)"
       id="linearGradient842"
       x1="45.62088"
       x2="-62.600243"
       xlink:href="#linearGradient843"
       y1="175.91933"
       y2="157.71582" />
    <linearGradient
       gradientUnits="userSpaceOnUse"
       gradientTransform="matrix(0.79865674,0.49779634,-0.37966392,0.6091269,69.028975,850.91762)"
       id="linearGradient846"
       x1="21.57963"
       x2="105.9315"
       xlink:href="#linearGradient843"
       y1="55.661335"
       y2="117.69579" />
    <linearGradient
       gradientUnits="userSpaceOnUse"
       gradientTransform="matrix(0.67291543,0.41942279,-0.45060811,0.72294866,69.028975,850.91762)"
       id="linearGradient848"
       x1="4.3352041"
       x2="6.6167293"
       xlink:href="#linearGradient849"
       y1="55.991253"
       y2="58.473469" />
    <linearGradient
       gradientUnits="userSpaceOnUse"
       gradientTransform="matrix(0.6593435,0.41096352,-0.45988342,0.73782982,69.028975,850.91762)"
       id="linearGradient852"
       x1="14.340255"
       x2="-3.122076"
       xlink:href="#linearGradient843"
       y1="53.410858"
       y2="62.753025" />
    <linearGradient
       gradientUnits="userSpaceOnUse"
       gradientTransform="matrix(0.68840534,0.42907753,-0.44046889,0.70668146,69.028975,850.91762)"
       id="linearGradient853"
       x1="-3.0423021"
       x2="-5.8153644"
       xlink:href="#linearGradient843"
       y1="90.654839"
       y2="122.25315" />
    <linearGradient
       gradientUnits="userSpaceOnUse"
       gradientTransform="matrix(0.67883762,0.42311405,-0.44667696,0.7166416,69.028975,850.91762)"
       id="linearGradient854"
       x1="-10.310557"
       x2="-29.788542"
       xlink:href="#linearGradient843"
       y1="88.203247"
       y2="133.70348" />
    <linearGradient
       gradientUnits="userSpaceOnUse"
       gradientTransform="matrix(0.65630744,0.40907117,-0.4620108,0.74124296,69.028975,850.91762)"
       id="linearGradient856"
       x1="18.033831"
       x2="9.1930199"
       xlink:href="#linearGradient843"
       y1="71.331642"
       y2="79.11554" />
    <linearGradient
       gradientUnits="userSpaceOnUse"
       y2="66.612053"
       x2="17.602587"
       y1="66.612053"
       x1="10.113566"
       gradientTransform="matrix(0.64306698,0.4008185,-0.47152343,0.75650488,69.028975,850.91762)"
       id="linearGradient858"
       xlink:href="#linearGradient849" />
    <linearGradient
       gradientUnits="userSpaceOnUse"
       gradientTransform="matrix(0.6038635,0.37638328,-0.50213522,0.80561797,69.028975,850.91762)"
       id="linearGradient859"
       x1="70.492432"
       x2="86.036766"
       xlink:href="#linearGradient871"
       y1="23.057989"
       y2="-19.962605" />
    <linearGradient
       gradientUnits="userSpaceOnUse"
       gradientTransform="matrix(0.92656071,0.57751786,-0.32725446,0.52504199,69.028975,850.91762)"
       id="linearGradient860"
       x1="149.60841"
       x2="168.17224"
       xlink:href="#linearGradient843"
       y1="134.58372"
       y2="134.58372" />
    <linearGradient
       gradientUnits="userSpaceOnUse"
       gradientTransform="matrix(1.185136,0.73868576,-0.25585345,0.41048731,69.028975,850.91762)"
       id="linearGradient862"
       x1="27.840088"
       x2="50.11684"
       xlink:href="#linearGradient863"
       y1="120.86608"
       y2="133.71698" />
    <linearGradient
       gradientUnits="userSpaceOnUse"
       gradientTransform="matrix(0.89925813,0.56050039,-0.33719032,0.54098293,69.028975,850.91762)"
       id="linearGradient870"
       x1="85.117317"
       x2="115.2844"
       xlink:href="#linearGradient871"
       y1="61.419952"
       y2="35.042332" />
    <linearGradient
       id="linearGradient877"
       x1="0.08802817"
       x2="-0.13732395"
       xlink:href="#linearGradient843"
       y1="0.78440368"
       y2="0.78440368" />
    <clipPath
       id="clipSilhouette">
      <!--
        This clip path is used to cut out any shadows and finishes outside
        of the 152x152px (38x38dp) square keyline shape. -->
      <rect
         width="38"
         height="38"
         x="5"
         y="5"
         rx="3"
         ry="3"
         id="clipSilhouetteBounds" />
    </clipPath>
    <linearGradient
       id="linearGradientWhiteMidpoint33">
      <!--
        Linear gradient that defines colors stops for the 33% midpoint.
        Edit the stop-color attributes to change the color of the gradient.
        Used for the radial gradient in the finish. -->
      <stop
         id="stopStart"
         style="stop-color:#ffffff;stop-opacity:1"
         offset="0" />
      <stop
         id="stopMidpoint"
         style="stop-color:#ffffff;stop-opacity:0.5"
         offset="0.33333" />
      <stop
         id="stopEnd"
         style="stop-color:#ffffff;stop-opacity:0"
         offset="1" />
    </linearGradient>
    <radialGradient
       id="radialGradientFinish"
       xlink:href="#linearGradientWhiteMidpoint33"
       cx="0"
       cy="0"
       r="48"
       gradientUnits="userSpaceOnUse">
      <!--
        The gradient used to fill the finishing layer of the icon with a
        45&#186; angle light. The color of the light is defined in
        #linearGradientWhiteMidpoint33 -->
    </radialGradient>
    <filter
       id="filterTint"
       inkscape:label="Tint"
       x="0"
       y="0"
       width="1"
       height="1">
      <!--
        Filter used to produce the lighter edge at the top of material
        elements.

        Edit the flood-color attribute in the feFlood element below to
        change the tint color.-->
      <feFlood
         flood-opacity="0.2"
         flood-color="#ffffff"
         result="floodTintColor"
         id="feFlood4200" />
      <feOffset
         in="SourceAlpha"
         dx="0"
         dy="1"
         result="offsetAlpha"
         id="feOffset4202">
        <!--
          The style guideline metrics specify the y offset to be 1dp, but
          looking at the example images, they seem to use 0.5dp or lower.
          -->
      </feOffset>
      <feComposite
         in="SourceAlpha"
         in2="offsetAlpha"
         operator="out"
         result="edgeAlpha"
         id="feComposite4204" />
      <feComposite
         in="floodTintColor"
         in2="edgeAlpha"
         operator="in"
         result="edgeColor"
         id="feComposite4206" />
      <feBlend
         in="edgeColor"
         in2="SourceGraphic"
         mode="normal"
         result="tint"
         id="feBlend4208" />
    </filter>
    <filter
       id="filterShade"
       inkscape:label="Shade"
       height="1"
       width="1"
       y="0"
       x="0">
      <!--
        Filter used to produce the darker edge at the bottom of material
        elements.

        Edit the flood-color attribute in the feFlood element below to
        change the shade color. -->
      <feFlood
         flood-color="#212121"
         flood-opacity="0.2"
         result="floodShadeColor"
         id="feFlood4211" />
      <feOffset
         in="SourceAlpha"
         dy="-1"
         dx="0"
         result="offsetAlpha"
         id="feOffset4213" />
      <feComposite
         in="SourceAlpha"
         in2="offsetAlpha"
         operator="out"
         result="edgeAlpha"
         id="feComposite4215" />
      <feComposite
         in="floodShadeColor"
         in2="edgeAlpha"
         operator="in"
         result="edgeColor"
         id="feComposite4217" />
      <feBlend
         in="edgeColor"
         in2="SourceGraphic"
         mode="normal"
         result="shade"
         id="feBlend4219" />
    </filter>
    <filter
       id="filterShadow"
       inkscape:label="Drop Shadow"
       width="2"
       height="2"
       x="-0.5"
       y="-0.5">
      <!--
        Filter used to produce the blurred shadow below material elements.

        Edit the flood-color attribute in the feFlood element below to
        change the shadow color. To edit the shadow size and offset, change
        the attributes in the feGaussianBlur and feOffset elements. -->
      <feFlood
         flood-opacity="0.2"
         flood-color="#212121"
         result="floodShadowColor"
         id="feFlood4222" />
      <feComposite
         in="floodShadowColor"
         in2="SourceAlpha"
         operator="in"
         result="shadow"
         id="feComposite4224" />
      <feGaussianBlur
         in="shadow"
         stdDeviation="1.5"
         result="bluredShadow"
         id="feGaussianBlur4226" />
      <feOffset
         in="bluredShadow"
         dx="0"
         dy="1.5"
         result="offsetShadow"
         id="feOffset4228" />
      <feComposite
         in="SourceGraphic"
         in2="offsetShadow"
         operator="over"
         result="dropShadow"
         id="feComposite4230" />
    </filter>
    <clipPath
       clipPathUnits="userSpaceOnUse"
       id="clipPath10658">
      <g
         id="g10660"
         inkscape:label="Square"
         style="display:inline;fill:#44eb47;fill-opacity:1;stroke:none"
         transform="matrix(0.31788092,0,0,0.31788092,-6.5165683,-6.51657)">
        <rect
           style="fill:#44eb47;fill-opacity:1;stroke:none;stroke-width:1.00005436;stroke-linejoin:round;stroke-miterlimit:4;stroke-dasharray:none;stroke-opacity:1"
           id="rect10662"
           width="150.99994"
           height="150.99994"
           x="20.500031"
           y="20.500031"
           ry="10.897427" />
      </g>
    </clipPath>
  </defs>
  <metadata
     id="metadata7">
    <rdf:RDF>
      <cc:Work
         rdf:about="">
        <dc:format>image/svg+xml</dc:format>
        <dc:type
           rdf:resource="http://purl.org/dc/dcmitype/StillImage" />
        <dc:title />
      </cc:Work>
    </rdf:RDF>
  </metadata>
  <g
     transform="translate(0,-1004.3622)"
     id="layer1"
     inkscape:groupmode="layer"
     inkscape:label="Layer 1">
    <flowRoot
       style="font-style:normal;font-variant:normal;font-weight:normal;font-stretch:normal;font-size:40px;line-height:125%;font-family:'Noto Serif';-inkscape-font-specification:'Noto Serif';letter-spacing:0px;word-spacing:0px;fill:#000000;fill-opacity:1;stroke:none;stroke-width:1px;stroke-linecap:butt;stroke-linejoin:miter;stroke-opacity:1"
       id="flowRoot2993"
       xml:space="preserve"><flowRegion
         id="flowRegion2995"><rect
           style="font-style:normal;font-variant:normal;font-weight:normal;font-stretch:normal;font-family:'Noto Serif';-inkscape-font-specification:'Noto Serif'"
           y="-7.5872421"
           x="-2.0637898"
           height="50.469044"
           width="45.590996"
           id="rect2997" /></flowRegion><flowPara
         id="flowPara2999" /></flowRoot>    <flowRoot
       transform="translate(0,1020.3622)"
       style="font-style:normal;font-weight:normal;font-size:40px;line-height:125%;font-family:sans-serif;letter-spacing:0px;word-spacing:0px;fill:#000000;fill-opacity:1;stroke:none;stroke-width:1px;stroke-linecap:butt;stroke-linejoin:miter;stroke-opacity:1"
       id="flowRoot3349"
       xml:space="preserve"><flowRegion
         id="flowRegion3351"><rect
           y="-9.0881805"
           x="-4.1275797"
           height="42.964352"
           width="43.339588"
           id="rect3353" /></flowRegion><flowPara
         id="flowPara3355" /></flowRoot>    <g
       id="g4237"
       transform="matrix(1.0526316,0,0,1.0526316,-1.2631584,-54.124345)">
      <g
         style="opacity:1"
         transform="matrix(0.79166667,0,0,0.79166667,4.9999999,214.24212)"
         id="g10674">
        <g
           transform="matrix(0.31788092,0,0,0.31788092,-6.5165683,997.84563)"
           style="display:inline;fill:#44eb47;fill-opacity:1;stroke:none"
           inkscape:label="Square"
           id="layer4">
          <rect
             ry="10.897427"
             y="20.500031"
             x="20.500031"
             height="150.99994"
             width="150.99994"
             id="rect3811"
             style="fill:#44eb47;fill-opacity:1;stroke:none;stroke-width:1.00005436;stroke-linejoin:round;stroke-miterlimit:4;stroke-dasharray:none;stroke-opacity:1" />
        </g>
        <path
           inkscape:connector-curvature="0"
           style="clip-rule:evenodd;fill:#000000;fill-opacity:0.1;fill-rule:evenodd"
           d="m 9.9726562,8.7832031 c -0.122368,-0.01 -0.1789472,0.087369 -0.2773437,0.1054688 -0.158755,0.03 -0.3184015,0.057844 -0.4765625,0.089844 -0.5429634,0.1121 -0.7595897,0.6121125 -0.78125,1.1328121 -0.017634,0.4224 -0.075519,0.821753 -0.066406,1.251953 0.00971,0.4557 0.099589,0.901944 0.2207031,1.339844 -0.4687367,0.054 -0.515855,0.767044 -0.3476563,1.089844 -0.2306707,0.08 -0.3721067,0.315381 -0.3925781,0.550781 -0.00839,0.097 0.00127,0.199663 0.041016,0.289062 0.044047,0.099 0.1403789,0.158129 0.1347657,0.236329 -0.00627,0.087 -0.071719,0.20144 -0.078125,0.30664 -0.00786,0.1288 -0.00422,0.262425 0.013672,0.390625 0.03216,0.2298 0.1186103,0.458003 0.234375,0.658203 -0.1979817,0.032 -0.4728403,0.05989 -0.5058594,0.304688 -0.029454,0.2185 0.063781,0.464859 0.046875,0.693359 -0.026969,0.3644 0.1461512,0.745766 0.4101563,1.009766 l 0.4023437,0.402344 c -0.00127,0.01739 -4.008e-4,0.03828 0,0.04687 0.00561,0.1211 0.019195,0.246134 0.042969,0.365234 0.044972,0.2251 0.1176663,0.442231 0.2265625,0.644531 0.099208,0.1843 0.2237014,0.344881 0.3671875,0.488282 l 0.6230469,0.623046 c -0.079403,0.146952 -0.1262488,0.312891 -0.1464844,0.47461 -0.034141,0.2733 -0.076062,0.5376 -0.033203,0.8125 0.049664,0.3188 0.195935,0.570943 0.4023435,0.777344 l 0.421875,0.421874 c -0.02909,0.02745 -0.05761,0.05526 -0.08203,0.08594 -0.03513,0.044 -0.127042,0.08541 -0.148438,0.128906 -0.0087,0.018 0.03953,0.04417 0.0293,0.07617 -0.0564,0.1773 -0.01327,0.21641 0.105469,0.34961 -0.08493,0.047 -0.206676,0.195706 -0.148437,0.253906 l 0.07226,0.07227 c -0.07515,0.06062 -0.22831,0.07805 -0.207031,0.205079 0.0046,0.027 0.01599,0.04755 0.0293,0.06055 l 0.07031,0.07031 c -0.08363,0.03159 -0.162973,0.06666 -0.1874997,0.130859 -0.021714,0.057 -0.016017,0.09314 0.00586,0.115235 l 0.1191407,0.11914 c -0.08713,0.04237 -0.1933287,0.08417 -0.2187501,0.144531 -0.019914,0.047 -0.00981,0.08749 0.019531,0.117188 l 0.1230461,0.123047 c -0.03178,0.044 -0.07111,0.08446 -0.083984,0.130859 -0.00806,0.029 0.00235,0.04727 -0.00195,0.07227 -0.00951,0.054 -0.013296,0.101875 -0.035156,0.171875 l 0.08789,0.08789 c -0.060867,0.07334 -0.1179925,0.161279 -0.082031,0.197265 l 0.072266,0.07227 c -0.022739,0.05995 -0.028008,0.114535 0.00781,0.15039 l 0.957031,0.957032 c -0.004,0.02186 -0.0094,0.0441 -0.01758,0.08594 -0.02602,0.1327 -0.04304,0.349903 0.03125,0.470703 0.0068,0.01155 0.01618,0.02357 0.02539,0.0332 l 0.324219,0.322266 0,0.002 c 0.0019,0.02869 0.0019,0.05772 0.02344,0.08203 0.002,0 0.0038,-2.34e-4 0.0059,0.0098 l 0.28125,0.28125 c -0.0436,0.05728 -0.07572,0.118521 -0.07226,0.1875 0.0018,0.036 0.01569,0.06494 0.03711,0.08594 l 1.212891,1.21289 c -0.0022,0.134013 0.0073,0.269037 0.06445,0.326172 l 6.046875,6.046875 c -0.02527,0.155897 -0.0077,0.496359 -0.105469,0.587891 -0.04722,0.044 -0.279081,0.05613 -0.349609,0.07813 -0.138944,0.043 -0.269136,0.105775 -0.398438,0.171875 -0.120255,0.062 -0.405256,0.290578 -0.25,0.455078 l 0.002,0.0039 70.710938,70.710941 c 0.124564,0.1243 0.34054,-0.0285 0.460938,-0.0605 0.09668,-0.026 0.199281,0.0137 0.300781,0.0137 0.08165,0 0.153607,-0.0166 0.210937,0.008 l 0.125,0.125 c 0.134707,0.13499 0.337428,0.14896 0.529297,0.16796 0.184245,0.018 0.39465,0.15466 0.556641,0.25586 0.210199,0.1314 0.513726,0.11882 0.753906,0.13282 0.286208,0.017 0.572638,0.0293 0.859375,0.0293 l 0.382813,0 c 0.125604,0 0.178713,0.0876 0.289062,0.14258 0.09232,0.046 0.191968,0.0642 0.294922,0.0742 0.08086,0.009 0.191005,0.085 0.277344,0.13086 l 0.488281,0.48828 0.0059,0.004 c 0.257087,0.2422 0.321275,-0.122 0.359375,-0.3086 0.03478,-0.1701 -0.05657,-0.31249 -0.177734,-0.43359 l -0.189453,-0.18945 c 0.304224,0.004 0.621526,-0.0954 0.917968,-0.0371 0.109722,0.0217 0.205759,0.0612 0.296876,0.11132 l 0.419921,0.41993 0.02148,0.0234 c 0.161684,0.1617 0.251787,-0.19894 0.242187,-0.30664 -0.01107,-0.1243 -0.08344,-0.23598 -0.18164,-0.33398 l -0.259766,-0.25977 c 0.211821,0.05 0.421486,0.11892 0.617187,0.21289 l 0.640626,0.63868 0.01172,0.0137 0.01172,0.0117 c 0.167343,0.1673 0.268992,-0.0333 0.289063,-0.23633 0.02653,-0.2723 -0.05969,-0.505 -0.238282,-0.6836 l -0.113281,-0.11328 c 0.137499,-0.0564 0.04355,-0.30436 -0.01367,-0.38867 -0.02317,-0.0346 -0.05059,-0.066 -0.08008,-0.0957 l 0,-0.002 -0.285156,-0.28515 c 0.02886,10e-4 0.05554,-0.001 0.08398,0.004 l 0.472656,0.47265 c 0.01417,0.015 0.03019,0.0232 0.04687,0.0332 l 0,-0.002 c 0.107377,0.045 0.2465,-0.0544 0.28711,-0.15039 0.06075,-0.1446 -0.02373,-0.32642 -0.09961,-0.44922 -0.04255,-0.0688 -0.09044,-0.12769 -0.142578,-0.17969 l -3.669922,-3.66992 c -0.07996,-0.15271 -0.123513,-0.28925 -0.197265,-0.45703 l 0.06641,0.0664 c 0.01,0.01 0.02215,0.0173 0.03516,0.0273 -0.02244,-0.0338 -0.03695,-0.0721 -0.05273,-0.10742 l 0.318359,0.31836 c 0.02488,0.025 0.05234,0.0483 0.08594,0.0723 0.05356,0.038 0.109692,0.0941 0.169922,0.1211 -0.03607,-0.069 -0.07004,-0.11541 -0.03906,-0.19141 0.02444,0.0119 0.06023,0.022 0.0918,0.0332 l 0.130859,0.13085 c 0.01042,0.009 0.01884,0.0195 0.02734,0.0195 0.0943,0.015 -0.04452,-0.13054 -0.05469,-0.14454 -0.125221,-0.17074 -0.210576,-0.44003 -0.314454,-0.64062 l 0.04492,0.0449 c 0.02947,0.03 0.06118,0.057 0.09375,0.084 1.3e-4,-0.012 0.0076,-0.0134 0.01367,-0.0234 l -0.002,-0.004 c -0.13597,-0.13602 -0.218733,-0.34879 -0.287109,-0.55664 l 0.58789,0.58789 c -0.0018,0 -0.0042,2.4e-4 -0.0059,-0.01 l 0.0059,0.006 c 0.08262,0.082 0.335862,0.17005 0.203125,-0.0273 -0.06352,-0.0946 -0.114965,-0.19692 -0.171875,-0.29492 l 0.134766,0.13477 c 0.08829,0.0885 0.192024,0.14586 0.322266,0.13086 l -0.01172,-0.0117 c -0.0424,-0.0424 -0.0663,-0.0993 -0.03125,-0.1543 0.03269,0.0274 0.343522,0.222 0.294922,0.125 -0.02079,-0.0419 0.01001,-0.0595 -0.01758,-0.10352 -0.04972,-0.08 -0.09938,-0.15751 -0.16211,-0.22851 0.136368,0.1124 0.289921,0.20542 0.417969,0.32422 l 0.03711,0.0371 c 0.03155,0.033 0.06201,0.0518 0.0957,0.01 L 78.746094,86.564453 c -3.96e-4,-0.0012 3.93e-4,-0.0027 0,-0.0039 l 16.417968,16.417977 c 0.0249,-0.031 -0.0858,-0.13802 -0.109374,-0.16602 0.01881,0.014 0.03782,0.0261 0.05664,0.0391 -0.06709,-0.1119 -0.166588,-0.19623 -0.236328,-0.30273 -0.05983,-0.091 -0.09672,-0.19425 -0.171875,-0.28125 -0.06749,-0.078 -0.0064,-0.14208 0.03906,-0.20508 0.03018,-0.042 0.236292,0.0312 0.289062,0.0312 0.268443,0.022 0.481892,-0.12313 0.726562,-0.20313 0.260253,-0.085 0.522214,-0.16576 0.779297,-0.25976 0.520971,-0.1913 1.055084,-0.39476 1.556641,-0.63086 0.199105,-0.094 0.359657,-0.23284 0.546875,-0.33984 0.195737,-0.1118 0.303845,-0.32766 0.542969,-0.34766 0.986349,-0.082 2.049659,-0.45991 2.837889,-1.06641 0.79556,-0.6119 1.36074,-1.463285 1.72461,-2.396485 0.40138,-1.0296 0.72233,-2.095684 1.22461,-3.083984 0.24625,-0.4844 0.49828,-0.934969 0.84571,-1.355469 0.32536,-0.3936 0.60341,-0.731097 0.78515,-1.216797 0.17171,-0.4593 0.13402,-0.934009 0.16992,-1.412109 0.0399,-0.5318 -0.0121,-1.077269 0.0566,-1.605469 0.0357,-0.2734 0.0744,-0.555159 0.16016,-0.818359 0.0897,-0.2752 0.2172,-0.533088 0.3125,-0.804688 0.0709,-0.2024 0.0783,-0.394215 0.0391,-0.603515 -0.007,-0.036 0.15582,-0.225 0.19532,-0.25 0.0716,-0.046 0.16746,-0.01539 0.25976,-0.02539 0.25498,-0.021 0.41723,-0.262881 0.58008,-0.425781 0.0625,-0.062 0.10714,-0.149609 0.15234,-0.224609 0.0499,-0.083 0.15267,-0.130594 0.23047,-0.183594 0.15552,-0.1056 0.32718,-0.19825 0.4961,-0.28125 0.23701,-0.116 0.24868,-0.09923 0.4707,0.0098 0.17342,0.084 0.35879,0.149454 0.54687,0.189453 0.19055,0.04028 0.38604,0.01319 0.53711,0.07422 l 0.19727,0.197266 c 0.0301,-0.07273 0.0179,-0.145217 0.0137,-0.222656 l 0,-0.002 c -4e-5,-6.75e-4 5e-5,-0.0013 0,-0.002 -0.0174,-0.254757 -0.0391,-0.482367 -0.18359,-0.699218 -0.0616,-0.0924 -0.13184,-0.180766 -0.21094,-0.259766 l -0.73438,-0.734375 c 0.002,-0.07867 0.0165,-0.262992 -0.0273,-0.306641 l -0.01,-0.0078 c 0,0 0,-0.002 0,-0.002 0.0449,-0.100609 -0.0273,-0.314809 -0.0293,-0.435547 l -0.0547,-0.05469 c 0.0135,-0.0214 0.0275,-0.043 0.041,-0.06445 l -0.084,-0.08398 c -0.0116,-0.02697 -0.0297,-0.05124 -0.0215,-0.08398 L 38.994141,11.359375 c -0.03253,0 -0.06598,-0.02006 -0.09961,-0.03516 l -0.529297,-0.529297 c -0.002,0.02848 -0.0087,0.04568 -0.01953,0.05469 l -0.304687,-0.304687 c -0.07829,-0.078 -0.177446,-0.143131 -0.267578,-0.207031 -0.180349,-0.1276 -0.368966,-0.244338 -0.570313,-0.335938 -0.161201,-0.073 -0.309505,-0.1848843 -0.470703,-0.2714842 0.03507,0.07 0.06149,0.1394843 0.0957,0.2089843 -0.05402,-0.042 -0.300284,-0.282825 -0.363281,-0.265625 -0.133134,0.036 0.03004,0.1803032 0.06641,0.2207031 -0.04827,-0.023 -0.395652,-0.1650906 -0.318359,-0.087891 l 0.03516,0.035156 c -0.07621,-0.034228 -0.20332,-0.1208496 -0.207031,0.00977 -0.131617,-0.037 -0.328386,-0.049381 -0.429688,-0.1132813 -0.07257,-0.046 -0.186004,-0.1615031 -0.273437,-0.1582031 0.01626,0.042 0.05056,0.088313 0.07031,0.1328125 -0.240048,-0.095 -0.480412,-0.043156 -0.728515,-0.035156 -0.08915,0 -0.181436,-0.012766 -0.269532,-0.00977 -0.07198,0.01 -0.112913,0.068406 -0.175781,0.066406 -0.569709,-0.014 -1.059876,0.1264281 -1.609375,0.2363281 -1.074507,0.2147996 -1.956393,0.8098246 -2.660156,1.6406246 -0.369088,0.4356 -0.681983,0.918153 -1.021485,1.376953 -0.277293,0.3749 -0.489192,0.797369 -0.84375,1.105469 -0.381767,0.3318 -0.895052,0.575903 -1.355468,0.783203 -0.221425,0.1 -0.44815,0.222025 -0.689453,0.265625 -0.251474,0.045 -0.504755,-0.01147 -0.757813,0.01953 -0.256821,0.027 -0.568132,-0.126872 -0.814453,-0.201171 -0.276105,-0.083 -0.556599,-0.15331 -0.835938,-0.22461 -0.53055,-0.1354 -1.071572,-0.236053 -1.613281,-0.314453 -0.597115,-0.086 -1.193174,-0.175159 -1.791015,-0.255859 -0.568388,-0.077 -1.144868,-0.124732 -1.701172,-0.269532 -0.277536,-0.07229 -0.507723,-0.212826 -0.722657,-0.375 l -1.390625,-1.390625 c -0.07784,-0.07 -0.158173,-0.136165 -0.242187,-0.197265 -0.4587,-0.3337 -0.957728,-0.552375 -1.525391,-0.609375 -0.134717,-0.014 -0.267295,-0.01772 -0.402344,-0.01172 -0.01495,0 -0.02849,-0.01587 -0.04297,-0.02148 l -0.238282,-0.238282 c -0.195406,-0.1954 -0.407454,-0.365512 -0.644531,-0.507812 -0.09371,-0.056 -0.170175,-0.12855 -0.28125,-0.15625 -0.151557,-0.038 -0.231627,0.01534 -0.347656,-0.09766 -0.203331,-0.1974 -0.409603,-0.3892782 -0.619141,-0.5800782 -0.412605,-0.3759 -0.814763,-0.6999125 -1.373046,-0.8203125 -0.133925,-0.029 -0.268825,-0.051687 -0.40625,-0.054687 -0.118538,0 -0.21422,-0.047734 -0.3320318,-0.052734 z M 38.248047,10.542969 c -0.0054,0.0073 -0.01,0.0076 -0.0098,0.0078 0,0 0,0.002 0,0.002 l 70.710943,70.708985 c 0,0 0.004,-0.0053 0.008,-0.0078 l 0.002,0 c 0,0 0,-0.002 0,-0.002 L 38.248047,10.542969 Z"
           transform="translate(0,1004.3622)"
           id="path8741"
           clip-path="url(#clipPath10658)" />
        <path
           id="path4554"
           d="m 40.308306,1018.4579 c -0.01746,-0.2564 -0.03744,-0.4849 -0.182729,-0.7029 -0.130358,-0.1956 -0.300404,-0.3709 -0.507764,-0.4852 -0.212245,-0.1169 -0.409633,-0.1321 -0.515956,-0.3576 -0.02305,-0.049 -0.06888,-0.051 -0.05098,-0.1142 0.01585,-0.055 0.09318,-0.045 0.128909,-0.02 0.0013,-0.074 0.02068,-0.3051 -0.03758,-0.3307 0.04622,-0.1 -0.02713,-0.3168 -0.02953,-0.4381 -0.0492,0.029 -0.09787,0.059 -0.14502,0.091 0.04359,-0.07 0.0875,-0.1399 0.131612,-0.2096 -0.0805,-0.017 -0.124809,-0.09 -0.104801,-0.1693 -0.22915,-0.01 -0.49819,-0.4035 -0.628743,-0.5645 -0.0096,0.1396 -0.14971,0.01 -0.185369,-0.038 -0.04986,-0.065 -0.08915,-0.1613 -0.137096,-0.2096 -0.07852,-0.079 -0.17916,-0.1441 -0.269899,-0.2084 -0.180348,-0.1276 -0.369613,-0.2457 -0.57096,-0.3373 -0.161201,-0.073 -0.308994,-0.1849 -0.470192,-0.2715 0.03507,0.07 0.0626,0.1401 0.09681,0.2096 -0.05402,-0.042 -0.3012,-0.2819 -0.364197,-0.2647 -0.133134,0.036 0.02953,0.1788 0.0659,0.2192 -0.05487,-0.026 -0.495812,-0.2064 -0.260583,-0.043 -0.07132,-0.025 -0.2244,-0.1416 -0.228424,0 -0.131617,-0.037 -0.328541,-0.049 -0.429843,-0.1129 -0.07257,-0.046 -0.186625,-0.162 -0.274058,-0.1587 0.01626,0.042 0.05012,0.09 0.06987,0.1345 -0.240048,-0.095 -0.480559,-0.044 -0.728662,-0.036 -0.08915,0 -0.180019,-0.013 -0.268115,-0.01 -0.07198,0.01 -0.114047,0.069 -0.176915,0.067 -0.569709,-0.014 -1.060304,0.1251 -1.609803,0.235 -1.074507,0.2148 -1.956047,0.8117 -2.65981,1.6425 -0.369088,0.4356 -0.681446,0.918 -1.020948,1.3768 -0.277293,0.3749 -0.489142,0.7963 -0.8437,1.1044 -0.381767,0.3318 -0.895674,0.5756 -1.35609,0.7829 -0.221425,0.1 -0.447206,0.2218 -0.688509,0.2654 -0.251474,0.045 -0.505918,-0.01 -0.758976,0.021 -0.256821,0.027 -0.568388,-0.1268 -0.814709,-0.2011 -0.276105,-0.083 -0.556304,-0.1542 -0.835643,-0.2255 -0.53055,-0.1354 -1.070871,-0.2367 -1.61258,-0.3151 -0.597115,-0.086 -1.193834,-0.1746 -1.791675,-0.2553 -0.568388,-0.077 -1.143512,-0.1251 -1.699816,-0.2699 -1.049342,-0.2734 -1.530494,-1.3611 -2.35643,-1.9618 -0.4587,-0.3337 -0.956889,-0.5537 -1.524552,-0.6107 -0.134717,-0.014 -0.267915,-0.016 -0.402963,-0.01 -0.10599,0.01 -0.200557,-0.1804 -0.280793,-0.2608 -0.195406,-0.1954 -0.408444,-0.365 -0.645521,-0.5073 -0.09371,-0.056 -0.168991,-0.1289 -0.280066,-0.1566 -0.151557,-0.038 -0.231925,0.016 -0.347954,-0.097 -0.203331,-0.1974 -0.410558,-0.3902 -0.620096,-0.581 -0.412605,-0.3759 -0.813785,-0.7 -1.372069,-0.8204 -0.133925,-0.029 -0.269765,-0.052 -0.40719,-0.055 -0.118538,0 -0.213963,-0.047 -0.331775,-0.052 -0.122368,-0.01 -0.179557,0.087 -0.277953,0.1051 -0.158755,0.03 -0.317379,0.059 -0.47554,0.091 -0.542963,0.1121 -0.760624,0.6119 -0.782284,1.1326 -0.01763,0.4224 -0.07363,0.8205 -0.06452,1.2507 0.0097,0.4557 0.09826,0.9028 0.219377,1.3407 -0.468736,0.054 -0.514831,0.7659 -0.346632,1.0887 -0.230671,0.08 -0.371794,0.3157 -0.392265,0.5511 -0.0084,0.097 5.36e-4,0.2009 0.04028,0.2903 0.04405,0.099 0.14,0.1584 0.134387,0.2366 -0.0063,0.087 -0.07152,0.2013 -0.07792,0.3065 -0.0079,0.1288 -0.0045,0.2615 0.01341,0.3897 0.03216,0.2298 0.117943,0.4583 0.233707,0.6585 -0.197981,0.032 -0.472039,0.059 -0.505058,0.3038 -0.02945,0.2185 0.06392,0.4651 0.04702,0.6936 -0.03454,0.4667 0.259001,0.9617 0.651464,1.2016 0.03295,0.02 0.143104,0.052 0.161198,0.081 0.01585,0.025 -0.0015,0.1448 0,0.1774 0.0056,0.1211 0.01803,0.2459 0.0418,0.365 0.04497,0.2251 0.118935,0.4414 0.227831,0.6437 0.228624,0.4248 0.594408,0.73 1.007078,0.9669 0.01413,0.01 0.02833,0.016 0.04246,0.024 -0.137557,0.1642 -0.180283,0.3897 -0.205972,0.595 -0.03414,0.2733 -0.07594,0.5387 -0.03308,0.8136 0.08294,0.5324 0.437369,0.8788 0.886625,1.137 -0.04398,0.052 -0.102293,0.095 -0.144887,0.1485 -0.03513,0.044 -0.126529,0.085 -0.147925,0.1285 -0.0087,0.018 0.03843,0.043 0.0282,0.075 -0.0564,0.1773 -0.01268,0.2162 0.106056,0.3494 -0.111472,0.062 -0.287595,0.3001 -0.03493,0.2769 -0.02642,0.1136 -0.273529,0.098 -0.247179,0.2553 0.02655,0.1588 0.222745,0.052 0.31434,0.014 -0.08248,0.1111 -0.353633,0.118 -0.40303,0.2473 -0.06789,0.178 0.138416,0.1544 0.236483,0.1184 0.0416,0.1061 -0.284426,0.1515 -0.330455,0.2608 -0.02516,0.06 -0.0014,0.1094 0.04702,0.1384 0.0702,0.042 0.119595,-0.01 0.189398,-0.044 -0.05699,0.084 -0.15136,0.1785 -0.178634,0.2768 -0.0081,0.029 0.0029,0.048 -0.0014,0.073 -0.0095,0.054 -0.01307,0.1019 -0.03493,0.1719 0.05937,-0.05 0.119728,-0.078 0.166549,0 -0.08288,0.053 -0.303247,0.3522 -0.06181,0.2904 -0.08638,0.1295 -0.06452,0.2428 0.09133,0.2634 0.06577,0.01 0.128048,-0.033 0.180085,-0.01 0.05712,0.027 0.08228,0.1154 0.107444,0.164 0.0836,0.1614 0.178236,0.3068 0.297633,0.4439 0.0593,0.068 0.129038,0.1297 0.198113,0.1879 0.09945,0.084 0.07112,0.087 0.04702,0.2097 -0.02602,0.1327 -0.04477,0.3509 0.02952,0.4717 0.03513,0.057 0.105726,0.09 0.167868,0.1089 0.08796,0.027 0.100378,0.034 0.15585,0.1115 0.04292,0.06 -0.0087,0.1531 0.04966,0.219 0.05058,0.057 0.119726,0.049 0.185368,0.056 0.118406,0.014 0.255237,0.031 0.376218,-0.013 -0.124217,0.1 -0.356142,0.2458 -0.346633,0.4355 0.008,0.1586 0.238001,0.1628 0.370737,0.1183 0,0.1528 0.05963,0.2211 0.225652,0.1908 0.07806,-0.014 0.107773,-0.072 0.171963,-0.1 0.08453,-0.036 0.0346,-0.012 0.128971,0 0.175067,0.022 0.270359,0.062 0.335605,0.2574 0.0593,0.1781 0.02041,0.3524 0.02965,0.5397 0.0061,0.1237 -0.08776,0.7144 0.158689,0.6397 0.08116,-0.025 0.155519,-0.09 0.236482,-0.09 0.09694,0 0.189595,-0.045 0.276699,-0.086 -0.13868,0.1136 -0.102095,0.6076 0.12633,0.5698 0.02939,0 0.113387,-0.078 0.131614,-0.064 0.03256,0.024 0.06769,0.041 0.108831,0.036 0.07548,-0.01 0.132933,-0.069 0.210858,-0.077 -0.01598,0.097 0.04609,0.1377 0.130359,0.141 0.115831,0 0.217199,0.058 0.286142,0.152 0.06075,0.083 0.07654,0.1908 0.138086,0.2741 0.09338,0.1263 0.214623,0.2292 0.343199,0.3188 0.129038,0.09 0.261246,0.1626 0.403888,0.2283 0.09034,0.042 0.028,0.2437 0.08737,0.3427 0.137359,0.2289 0.402303,0.1022 0.483662,-0.083 0.160273,0.242 0.269367,0.4411 0.593745,0.2716 0.08836,0.2566 0.383152,0.3905 0.545407,0.5995 0.08875,0.1144 0.185567,0.2005 0.324973,0.2458 0.109028,0.035 0.287331,-0.034 0.350067,0.048 0.147132,0.1905 0.295057,0.4563 0.568851,0.4509 0.213764,0 0.256029,-0.1872 0.260651,-0.3737 0.110812,0.1142 0.175793,0.1665 0.209538,0.32 0.03097,0.1408 0.0766,0.2775 0.108765,0.4176 0.06221,0.2718 0.09391,0.5368 0.103745,0.815 0.01836,0.5196 0.03282,1.025 -0.08611,1.5335 -0.03269,0.1398 -0.0042,0.5269 -0.107444,0.6236 -0.04722,0.044 -0.278812,0.056 -0.34934,0.078 -0.138944,0.043 -0.269105,0.1046 -0.398407,0.1707 -0.120255,0.062 -0.407058,0.291 -0.251802,0.4555 0.123953,0.1313 0.343264,-0.024 0.46484,-0.056 0.09668,-0.026 0.199369,0.011 0.300869,0.014 0.111274,0 0.20934,-0.054 0.268642,0.047 0.126199,0.2143 0.370077,0.2316 0.596455,0.254 0.184245,0.018 0.39418,0.1542 0.556171,0.2554 0.210199,0.1314 0.513841,0.1174 0.754021,0.1318 0.286208,0.017 0.571888,0.026 0.858625,0.029 l 0.38401,0 c 0.125604,0 0.178633,0.087 0.288982,0.1425 0.09232,0.046 0.190717,0.069 0.293671,0.076 0.09054,0.01 0.221755,0.1029 0.310245,0.1451 0.110153,0.053 0.219446,0.1257 0.299615,0.219 0.0665,0.078 0.08816,0.1893 0.161131,0.2581 0.257087,0.2422 0.323058,-0.1223 0.361162,-0.3089 0.05461,-0.2671 -0.202275,-0.4672 -0.396095,-0.6212 0.312359,0.011 0.640568,-0.099 0.945795,-0.039 0.192106,0.038 0.344586,0.1218 0.496341,0.2434 0.04385,0.035 0.11484,0.067 0.151161,0.1075 0.04537,0.05 0.02892,0.1293 0.06987,0.1801 0.175265,0.2179 0.273329,-0.1698 0.263293,-0.2822 -0.02529,-0.2841 -0.372849,-0.5068 -0.609859,-0.6371 0.312688,0.073 0.677811,0.1495 0.951009,0.3277 0.218519,0.1425 0.323321,0.39 0.47554,0.5675 0.181471,0.2116 0.290766,0 0.311766,-0.2124 0.03203,-0.3288 -0.0984,-0.5998 -0.360038,-0.7876 0.157763,-0.045 0.05395,-0.3103 -0.0051,-0.3971 -0.131351,-0.1929 -0.375626,-0.3159 -0.602136,-0.3557 0.188605,-0.073 0.404217,-0.04 0.569576,0.07 0.09272,0.062 0.103681,0.1063 0.131682,0.2043 0.01941,0.068 0.06868,0.1774 0.139736,0.207 0.107377,0.045 0.24685,-0.054 0.287464,-0.1505 0.06075,-0.1446 -0.02351,-0.3262 -0.09939,-0.449 -0.539861,-0.8727 -1.907835,-0.3316 -2.692828,-0.2701 -0.236481,0.018 -0.471773,0.028 -0.709114,0.023 -0.225652,0 -0.335341,0.01 -0.335341,-0.2356 0,-0.1895 0.03507,-0.3819 0.01882,-0.5712 -0.01902,-0.2203 -0.08882,-0.4521 -0.151557,-0.6634 -0.130689,-0.4404 -0.218321,-0.8917 -0.268378,-1.3483 -0.01076,-0.098 -0.02146,-0.1976 -0.02496,-0.2965 -0.0013,-0.035 -0.02589,-0.1528 -0.0065,-0.1811 0.02239,-0.033 0.09906,0.02 0.116888,-0.034 0.02556,-0.077 -0.03843,-0.1562 -0.07238,-0.2243 -0.05343,-0.1069 -0.03791,-0.2076 -0.02562,-0.3255 0.0704,0.091 0.169123,0.1105 0.227302,0.2102 0.03632,0.062 0.07456,0.1887 0.151425,0.15 -0.125274,-0.2023 -0.150302,-0.3518 -0.247246,-0.5645 0.03956,0.042 0.06115,0.085 0.110217,0.1183 -0.07224,-0.1089 -0.09338,-0.227 -0.170443,-0.3464 -0.04207,-0.065 -0.117812,-0.2609 -0.08486,-0.331 0.134849,0.2486 0.294727,0.4849 0.418086,0.739 0.04827,0.1 0.100444,0.1579 0.189265,0.2206 0.05356,0.038 0.108962,0.094 0.169188,0.121 -0.03612,-0.069 -0.06855,-0.115 -0.03757,-0.1909 0.0348,0.017 0.105396,0.022 0.130425,0.047 0.0276,0.028 0.08466,0.1301 0.119527,0.1358 0.0943,0.015 -0.04537,-0.1307 -0.05554,-0.1447 -0.126727,-0.1728 -0.212312,-0.447 -0.317907,-0.6483 0.04207,0.051 0.09107,0.095 0.14251,0.1371 1.33e-4,-0.012 0.0072,-0.017 0.01333,-0.024 -0.1995,-0.197 -0.297699,-0.5762 -0.378794,-0.8333 0.205577,0.2931 0.431031,0.6128 0.677086,0.8575 0.08262,0.082 0.335606,0.1694 0.202869,-0.028 -0.129169,-0.1923 -0.243282,-0.3917 -0.347953,-0.5981 0.160406,0.2216 0.320416,0.6067 0.634095,0.5699 -0.04959,-0.043 -0.08122,-0.1065 -0.04299,-0.1668 0.03269,0.027 0.342737,0.2235 0.294134,0.1264 -0.02074,-0.042 0.0103,-0.06 -0.01729,-0.1039 -0.04972,-0.08 -0.0986,-0.1586 -0.16133,-0.2294 0.136368,0.1124 0.288452,0.2051 0.4165,0.3239 0.04544,0.042 0.08724,0.1032 0.134322,0.044 0.0249,-0.031 -0.08658,-0.1384 -0.110151,-0.1668 0.01881,0.014 0.03758,0.027 0.0564,0.04 -0.06709,-0.1119 -0.166746,-0.1972 -0.236483,-0.3037 -0.05983,-0.091 -0.09694,-0.1932 -0.172095,-0.2804 -0.06749,-0.078 -0.0062,-0.1414 0.03923,-0.2048 0.03018,-0.042 0.237868,0.027 0.290634,0.031 0.268443,0.022 0.481019,-0.124 0.72569,-0.2038 0.260253,-0.085 0.522626,-0.1646 0.779709,-0.259 0.520971,-0.1913 1.055285,-0.3957 1.556842,-0.6318 0.199105,-0.094 0.358257,-0.2317 0.545475,-0.3387 0.195737,-0.1118 0.305226,-0.3288 0.54435,-0.3488 0.986342,-0.082 2.048367,-0.4595 2.836593,-1.066 0.795559,-0.6119 1.361371,-1.4624 1.725243,-2.3956 0.401378,-1.0296 0.721926,-2.097 1.224207,-3.0853 0.246256,-0.4844 0.499314,-0.9341 0.846739,-1.3546 0.325368,-0.3936 0.601936,-0.7316 0.78367,-1.2173 0.171834,-0.4593 0.134848,-0.9334 0.170709,-1.4115 0.03989,-0.5318 -0.01102,-1.0773 0.05771,-1.6055 0.03566,-0.2734 0.07357,-0.5554 0.159354,-0.8186 0.08974,-0.2752 0.216802,-0.5325 0.312094,-0.8041 0.07092,-0.2024 0.07819,-0.3956 0.03903,-0.6049 -0.0068,-0.036 0.155252,-0.2248 0.194744,-0.25 0.07165,-0.046 0.168262,-0.018 0.260583,-0.025 0.254975,-0.021 0.417493,-0.2633 0.580342,-0.4262 0.06241,-0.062 0.106188,-0.1486 0.151361,-0.2238 0.04992,-0.083 0.153208,-0.1303 0.230996,-0.1832 0.15552,-0.1056 0.327285,-0.1985 0.496213,-0.2812 0.23701,-0.116 0.248166,-0.099 0.470189,0.01 0.173415,0.084 0.359839,0.1479 0.547917,0.1876 0.292481,0.062 0.600549,-0.042 0.733613,0.2721 0.03057,-0.074 0.01731,-0.147 0.01339,-0.2259 m -20.534816,17.5939 c 0.0033,-0.023 0.0033,-0.023 0,0 m 0.276765,1.0807 c -0.01327,-0.088 -0.02589,-0.1751 -0.03493,-0.2634 0.01103,0.06 0.06419,0.2483 0.03493,0.2634 m 1.012823,-0.1075 c 0.03612,0.1288 0.222878,0.2822 0.180086,0.4086 -0.03909,-0.1247 -0.155255,-0.1493 -0.174737,-0.2661 -0.03216,-0.1933 -0.138679,-0.389 -0.136896,-0.5833 0.04385,0.1469 0.08776,0.2938 0.131547,0.4408 m -0.01076,0.2232 c -0.07759,0.019 -0.09324,-0.041 -0.09925,-0.1103 0.03388,0.037 0.06888,0.072 0.09925,0.1103 m 0.241897,3.102 c -0.01842,0.2465 -0.06439,0.4842 -0.126265,0.7232 -0.541577,-0.8643 -0.855719,-1.835 -0.800709,-2.863 0.104208,0.05 0.121378,0.1484 0.174736,0.2473 0.02173,-0.022 0.02807,-0.019 0.01149,-0.057 -0.04444,-0.1028 -0.0282,-0.13 -0.03566,-0.217 -0.0144,-0.1656 -0.07865,-0.3322 -0.11834,-0.4947 0.125406,0.1142 0.157368,0.277 0.225453,0.43 0.0949,0.2135 0.136434,0.1614 0.07284,-0.032 0.05263,0.034 0.07317,0.1209 0.118208,0.1747 -0.0074,-0.038 -0.08255,-0.1585 -0.06577,-0.1976 0.02556,-0.06 0.01314,-0.082 -0.0096,-0.1429 -0.06115,-0.1635 -0.211189,-0.4086 -0.185171,-0.5896 0.13901,0.2684 0.163841,0.6042 0.357265,0.836 -0.107641,-0.4949 -0.216538,-1.0159 -0.290104,-1.5376 0.02272,0.1509 0.105595,0.2829 0.14634,0.4287 0.03408,0.1219 0.06465,0.2006 0.07244,0.3039 0.02602,0.3456 0.143896,0.6654 0.221755,1.0012 0.148519,0.6396 0.255501,1.3286 0.231133,1.9865 m 0.03493,-3.2177 c -0.0041,-0.035 -1.98e-4,0 0,0 m 0.193425,4.121 c -0.01506,0 0.0034,0 0,0 m 4.175246,0.656 c 0.01585,0 0.0284,0 0.04299,0.013 -0.02893,-0.01 -0.05917,-0.016 -0.08598,-0.024 0.01433,0 0.02866,0.01 0.04299,0.011 m 9.306782,-27.3735 c 0.03158,0.012 0.04755,-4e-4 0.06182,0.032 -0.02056,-0.011 -0.04121,-0.021 -0.06182,-0.032 m 3.624426,2.5914 c -0.01762,-0.01 -0.03764,0.027 -0.02687,-0.016 0.02059,0 0.04121,0.01 0.06181,0.01 -0.01168,0 -0.02324,0.01 -0.03493,0.01 m -0.381432,-2.2231 c -0.01017,0.01 -0.01415,0.01 0,0"
           inkscape:connector-curvature="0"
           style="clip-rule:evenodd;fill:#ffffff;fill-opacity:1;fill-rule:evenodd"
           sodipodi:nodetypes="csccccccccccccccccccccccccccccccccccccccccccccccccccccccccccccccccccccccccccccccccccccccccccccccccccccccccccccccscccccccccccccccccccccccccccccccccsccccccccccccccccccccccccccsccccccccccccccccccccccccccccccccccccccccccsccccccccsccccccccccccccccccccccccccccccccccccccccccccccccccccccccccccccc" />
      </g>
    </g>
  </g>
</svg>
